<?xml version="1.0" encoding="UTF-8" standalone="no"?>
<!-- Created with Inkscape (http://www.inkscape.org/) -->

<svg
   xmlns:dc="http://purl.org/dc/elements/1.1/"
   xmlns:cc="http://creativecommons.org/ns#"
   xmlns:rdf="http://www.w3.org/1999/02/22-rdf-syntax-ns#"
   xmlns:svg="http://www.w3.org/2000/svg"
   xmlns="http://www.w3.org/2000/svg"
   xmlns:sodipodi="http://sodipodi.sourceforge.net/DTD/sodipodi-0.dtd"
   xmlns:inkscape="http://www.inkscape.org/namespaces/inkscape"
   width="120.3252mm"
   height="50.910198mm"
   viewBox="0 0 426.34912 180.39047"
   id="svg4804"
   version="1.1"
   inkscape:version="0.91 r13725"
   sodipodi:docname="Gastro_Grantler_Rechteck.svg">
  <defs
     id="defs4806">
    <inkscape:path-effect
       effect="spiro"
       id="path-effect4144"
       is_visible="true" />
    <inkscape:path-effect
       is_visible="true"
       id="path-effect6192"
       effect="spiro" />
  </defs>
  <sodipodi:namedview
     id="base"
     pagecolor="#ffffff"
     bordercolor="#666666"
     borderopacity="1.0"
     inkscape:pageopacity="0.0"
     inkscape:pageshadow="2"
     inkscape:zoom="0.35"
     inkscape:cx="-298.9683"
     inkscape:cy="55.909518"
     inkscape:document-units="px"
     inkscape:current-layer="layer1"
     showgrid="false"
     fit-margin-top="0"
     fit-margin-left="0"
     fit-margin-right="0"
     fit-margin-bottom="0"
     inkscape:window-width="1600"
     inkscape:window-height="838"
     inkscape:window-x="-8"
     inkscape:window-y="-8"
     inkscape:window-maximized="1" />
  <metadata
     id="metadata4809">
    <rdf:RDF>
      <cc:Work
         rdf:about="">
        <dc:format>image/svg+xml</dc:format>
        <dc:type
           rdf:resource="http://purl.org/dc/dcmitype/StillImage" />
        <dc:title></dc:title>
      </cc:Work>
    </rdf:RDF>
  </metadata>
  <g
     inkscape:label="Ebene 1"
     inkscape:groupmode="layer"
     id="layer1"
     transform="translate(-49.682582,-407.88125)">
    <g
       transform="translate(-16.525258,312.79262)"
       id="g5352">
      <rect
         rx="55.260799"
         ry="55.260799"
         y="95.088631"
         x="66.20784"
         height="180.39047"
         width="426.34912"
         id="rect4136"
         style="opacity:1;fill:#076394;fill-opacity:1;fill-rule:nonzero;stroke:none;stroke-width:2;stroke-miterlimit:4;stroke-dasharray:none;stroke-opacity:1" />
      <g
         transform="translate(-1.2229776,-3.8544475)"
         id="g6248">
        <path
           style="fill:#ffffff;fill-opacity:1;fill-rule:evenodd;stroke:#000000;stroke-width:2;stroke-linecap:butt;stroke-linejoin:miter;stroke-miterlimit:4;stroke-dasharray:none;stroke-opacity:1"
           d="m 101.71719,253.54893 c 6.07087,5.27864 13.32654,9.58355 21.31677,10.5194 3.99511,0.46792 8.11827,0.0655 11.86553,-1.39668 3.74726,-1.46216 7.10106,-4.00926 9.31928,-7.36476 1.7435,-2.63738 2.76227,-5.72466 3.10541,-8.86756 0.34314,-3.1429 0.0231,-6.3405 -0.76541,-9.40217 -1.57706,-6.12332 -4.96982,-11.62006 -8.69543,-16.72908 -3.7256,-5.10902 -7.83855,-9.95098 -11.1429,-15.34205 -3.30435,-5.39106 -5.80493,-11.47008 -5.87754,-17.79282 -0.0813,-7.07956 2.88375,-13.87962 6.74336,-19.81512 3.8596,-5.9355 8.63195,-11.22042 12.75702,-16.97459 4.12508,-5.75418 7.66556,-12.17657 8.5465,-19.20157 0.44048,-3.5125 0.19232,-7.13508 -0.9459,-10.48712 -1.13822,-3.35203 -3.18942,-6.42233 -5.99531,-8.58073 -2.87155,-2.20891 -6.46095,-3.40684 -10.0776,-3.61865 -3.61665,-0.2118 -7.25631,0.53415 -10.60537,1.91577 -6.69811,2.76323 -12.10639,7.92809 -16.89662,13.36444 -15.910228,18.05624 -26.930486,40.94086 -28.333569,64.96573 -0.701542,12.01244 1.006367,24.19799 5.326157,35.42876 4.319791,11.23077 11.275251,21.48338 20.355622,29.3788 z"
           id="path4142"
           inkscape:path-effect="#path-effect4144"
           inkscape:original-d="m 101.71719,253.54893 c 25.3513,10.7723 32.82035,6.71202 42.50158,1.75796 15.2795,-7.81878 -28.98279,-31.66823 -23.37587,-68.13368 2.33308,-15.17353 51.3523,-66.46014 21.10567,-75.05913 -12.02068,-3.41743 -28.05401,5.57193 -37.57959,11.66156 -53.807887,34.39887 -28.003107,119.00097 -2.65179,129.77329 z"
           inkscape:connector-curvature="0"
           sodipodi:nodetypes="zssssz" />
        <path
           sodipodi:nodetypes="zssssz"
           inkscape:connector-curvature="0"
           inkscape:original-d="m 204.94815,257.95822 c -26.151,12.06181 -34.08671,8.05956 -44.36296,3.19445 -16.21859,-7.6784 28.67039,-23.89751 21.64583,-61.80634 -2.92296,-15.77413 -55.18325,-77.8823 -23.84662,-87.83053 12.45386,-3.95365 29.49768,4.92331 39.64753,10.97948 57.33418,34.20991 33.06726,123.40113 6.91622,135.46294 z"
           inkscape:path-effect="#path-effect6192"
           id="path6190"
           d="m 204.94815,257.95822 c -6.12886,5.95546 -13.56185,11.01678 -22.0043,12.34172 -4.22123,0.66247 -8.62861,0.34982 -12.61889,-1.17836 -3.99027,-1.52817 -7.53868,-4.30656 -9.73977,-7.96891 -2.94781,-4.90481 -3.3026,-11.05874 -1.95474,-16.62022 1.34785,-5.56148 4.25906,-10.61982 7.51612,-15.32496 3.25706,-4.70513 6.89585,-9.14687 9.94533,-13.98912 3.04949,-4.84225 5.52605,-10.1825 6.13912,-15.87204 0.88845,-8.24526 -2.2224,-16.46904 -6.61283,-23.50451 -4.39042,-7.03547 -10.04756,-13.18057 -14.99945,-19.83282 -4.95188,-6.65226 -9.29507,-14.0758 -10.44112,-22.28922 -0.57302,-4.10671 -0.31427,-8.36035 1.03218,-12.28215 1.34645,-3.9218 3.81174,-7.49601 7.1746,-9.92183 3.03854,-2.19187 6.73727,-3.39927 10.47478,-3.66022 3.7375,-0.26095 7.51063,0.40141 11.02688,1.69486 7.0325,2.58691 12.91367,7.58086 18.14587,12.94484 17.54377,17.98564 29.58518,41.73751 31.57189,66.78386 1.98671,25.04636 -6.63652,51.16973 -24.65567,68.67908 z"
           style="fill:#ffffff;fill-opacity:1;fill-rule:evenodd;stroke:#000000;stroke-width:2;stroke-linecap:butt;stroke-linejoin:miter;stroke-miterlimit:4;stroke-dasharray:none;stroke-opacity:1" />
      </g>
      <text
         sodipodi:linespacing="89.999998%"
         id="text6194"
         y="177.41945"
         x="233.32886"
         style="font-style:normal;font-variant:normal;font-weight:normal;font-stretch:normal;font-size:16px;line-height:89.99999762%;font-family:Arial;-inkscape-font-specification:'Arial, Normal';text-align:start;letter-spacing:0px;word-spacing:0px;writing-mode:lr-tb;text-anchor:start;fill:#ffffff;fill-opacity:1;stroke:#000000;stroke-width:2;stroke-linecap:butt;stroke-linejoin:miter;stroke-opacity:1"
         xml:space="preserve"><tspan
           style="font-style:normal;font-variant:normal;font-weight:normal;font-stretch:normal;font-size:80px;line-height:89.99999762%;font-family:'Bombe CAT';-inkscape-font-specification:'Bombe CAT';fill:#ffffff;fill-opacity:1;stroke:#000000;stroke-width:2;stroke-opacity:1"
           y="177.41945"
           x="233.32886"
           id="tspan6196"
           sodipodi:role="line">Gastr </tspan><tspan
           id="tspan6198"
           style="font-style:normal;font-variant:normal;font-weight:normal;font-stretch:normal;font-size:80px;line-height:89.99999762%;font-family:'Bombe CAT';-inkscape-font-specification:'Bombe CAT';fill:#ffffff;fill-opacity:1;stroke:#000000;stroke-width:2;stroke-opacity:1"
           y="249.41945"
           x="233.32886"
           sodipodi:role="line">Grantler</tspan></text>
      <circle
         r="29.82329"
         cy="151.47458"
         cx="417.25256"
         id="path6264"
         style="opacity:1;fill:#ffffff;fill-opacity:1;fill-rule:nonzero;stroke:#000000;stroke-width:2;stroke-miterlimit:4;stroke-dasharray:none;stroke-opacity:1" />
      <circle
         style="opacity:1;fill:#b57d29;fill-opacity:1;fill-rule:nonzero;stroke:#000000;stroke-width:1.99999988;stroke-miterlimit:4;stroke-dasharray:none;stroke-opacity:1"
         id="circle6266"
         cx="417.25256"
         cy="151.47458"
         r="21.265303" />
      <path
         transform="matrix(0.58168749,0,0,0.58157266,178.75041,82.91345)"
         d="m 409.19244,120.9255 c 1.4378,3.64979 -4.21049,3.7388 -6.06619,2.38971 -5.02885,-3.65595 -2.82382,-11.17457 1.28677,-14.5221 7.3529,-5.98795 18.11884,-2.38311 22.97801,4.96326 7.13104,10.78109 1.97126,25.17246 -8.63975,31.43391 -14.14281,8.34555 -32.26688,1.57424 -39.88982,-12.31623 -9.59269,-17.47975 -1.18539,-39.381249 15.99273,-48.34573"
         sodipodi:t0="0"
         sodipodi:argument="-17.65403"
         sodipodi:radius="39.119564"
         sodipodi:revolution="1.5"
         sodipodi:expansion="1"
         sodipodi:cy="120.9255"
         sodipodi:cx="409.19244"
         id="path6346"
         style="fill:none;fill-rule:evenodd;stroke:#000000;stroke-width:3.43861175;stroke-linecap:butt;stroke-linejoin:miter;stroke-opacity:1"
         sodipodi:type="spiral" />
    </g>
  </g>
</svg>
